<?xml version="1.0" standalone="no"?>
<!DOCTYPE svg PUBLIC "-//W3C//DTD SVG 20010904//EN"
 "http://www.w3.org/TR/2001/REC-SVG-20010904/DTD/svg10.dtd">
<svg version="1.0" xmlns="http://www.w3.org/2000/svg"
 width="2314.000000pt" height="717.000000pt" viewBox="0 0 2314.000000 717.000000"
 preserveAspectRatio="xMidYMid meet">

<g transform="translate(0.000000,717.000000) scale(0.100000,-0.100000)"
fill="#000000" stroke="none">
<path fill="white"  d="M3863 7050 c-183 -27 -345 -112 -479 -251 -113 -119 -181 -251 -207
-408 l-12 -73 -62 -23 c-158 -57 -275 -179 -328 -344 l-21 -65 -100 -31 c-363
-116 -711 -295 -939 -487 -388 -326 -547 -673 -495 -1084 21 -172 68 -296 166
-436 l54 -77 0 -998 0 -998 -35 -44 c-137 -172 -140 -430 -6 -659 131 -225
427 -480 761 -656 331 -174 783 -319 1200 -383 151 -24 199 -26 564 -30 491
-6 653 10 1013 98 706 172 1291 506 1563 891 115 163 155 282 148 447 -5 126
-26 187 -93 276 l-45 60 0 993 c0 736 3 999 12 1015 6 12 28 45 49 73 44 57
100 174 129 266 47 151 52 417 11 573 -46 171 -170 378 -318 528 -270 275
-595 461 -1111 636 l-76 26 -21 65 c-31 98 -79 172 -152 239 -60 56 -155 111
-216 127 -23 5 -27 14 -37 77 -27 160 -93 290 -209 411 -181 189 -453 283
-708 246z m267 -226 c212 -50 383 -211 435 -411 11 -42 15 -113 15 -265 l0
-208 98 0 c113 1 129 9 134 66 3 37 5 39 33 37 42 -3 78 -34 93 -78 10 -31 10
-40 0 -47 -9 -5 -7 -8 7 -8 13 0 16 -3 8 -8 -9 -6 -10 -17 -2 -45 10 -38 5
-339 -7 -404 -13 -72 -23 -12 -26 169 -2 120 -7 187 -13 185 -10 -4 -11 -9
-14 -48 -1 -19 -2 -19 -18 -3 -12 12 -18 13 -21 4 -2 -6 0 -16 6 -22 5 -5 7
-30 5 -56 -4 -37 -2 -44 7 -32 9 12 11 7 6 -24 -3 -24 -1 -45 6 -54 9 -10 9
-18 0 -32 -6 -10 -8 -21 -4 -25 13 -12 8 -85 -5 -85 -7 0 -13 6 -14 13 0 9 -2
9 -6 0 -3 -10 -10 -10 -25 -2 -12 7 -42 8 -78 4 l-59 -7 1 49 c1 65 -8 90 -37
97 -26 7 -104 -16 -142 -41 -21 -14 -29 -13 -90 12 -54 21 -86 27 -153 28
-103 2 -169 -18 -242 -74 -29 -21 -60 -39 -69 -39 -24 0 -286 85 -353 115 -81
36 -181 100 -254 164 -86 74 -135 73 -168 -4 -50 -120 -3 -346 95 -458 l30
-33 -21 -18 c-58 -50 42 -243 177 -338 34 -25 53 -44 47 -50 -16 -16 -115 -38
-170 -38 -45 0 -54 -3 -61 -22 -27 -73 100 -177 306 -251 163 -59 351 -73 482
-37 189 53 303 133 481 340 12 14 18 18 14 10 -7 -13 -5 -13 9 -1 9 7 17 20
17 28 0 9 16 49 35 91 20 41 43 97 52 124 9 27 21 47 27 45 6 -3 17 2 24 9 7
8 10 14 6 14 -4 0 1 9 11 20 9 10 22 18 28 17 6 -1 11 4 12 10 0 19 73 65 77
51 3 -8 12 -1 22 14 19 28 15 48 -10 48 -18 0 -18 16 0 23 9 4 16 -2 19 -15 5
-16 12 -19 31 -16 24 5 25 2 31 -56 4 -34 5 -90 3 -126 l-3 -65 -42 2 -43 3
-1 -48 c0 -26 -4 -168 -8 -315 -7 -224 -11 -271 -25 -286 -9 -10 -16 -23 -16
-29 0 -14 -62 -75 -81 -81 -109 -31 -112 -31 -814 -29 l-700 3 -67 33 c-44 21
-80 48 -104 77 -67 83 -66 65 -65 815 1 597 3 681 18 725 9 28 22 60 30 71 16
25 78 69 111 79 21 6 22 4 22 -63 l0 -69 31 -7 c17 -3 65 -6 105 -6 l74 0 0
208 c0 296 25 376 160 513 80 81 172 135 280 163 73 19 229 19 310 0z m-751
-1248 c142 -94 295 -158 542 -225 80 -22 153 -43 162 -47 13 -5 17 -1 17 15 0
56 65 125 127 137 62 12 126 -12 219 -80 8 -7 25 -2 51 15 21 14 50 34 65 43
l28 18 -15 -48 c-27 -88 -28 -96 -14 -105 8 -4 39 -6 69 -2 l55 5 -24 -25
c-13 -14 -53 -41 -90 -61 l-66 -35 -12 -62 c-20 -106 -65 -182 -172 -289 -79
-80 -111 -104 -181 -139 -108 -53 -175 -65 -320 -58 -108 5 -155 14 -207 39
-32 16 -21 25 56 48 67 20 188 76 225 104 20 16 14 36 -11 36 -9 0 -48 10 -87
21 -145 43 -260 113 -317 192 l-31 42 99 6 c90 5 183 30 183 48 0 4 -31 17
-69 29 -162 52 -288 154 -330 267 -24 63 -39 155 -26 155 4 0 37 -20 74 -44z
m-721 7 c3 -19 -14 -30 -137 -89 -78 -37 -141 -70 -141 -74 0 -4 42 -35 93
-69 138 -91 147 -101 147 -159 0 -44 -3 -50 -32 -65 -238 -124 -390 -271 -445
-430 -22 -61 -25 -84 -21 -157 5 -82 39 -200 58 -200 4 0 13 21 19 46 38 149
171 316 344 432 70 47 182 112 192 112 3 0 5 -98 6 -217 0 -179 3 -230 18
-283 20 -70 60 -181 61 -166 0 5 14 -10 30 -32 17 -23 35 -42 40 -42 21 0 9
-20 -21 -35 -17 -9 -83 -34 -146 -56 -64 -22 -132 -48 -152 -58 l-35 -19 74
-48 c135 -87 356 -171 615 -234 494 -120 1030 -115 1547 15 232 59 479 157
593 235 48 33 48 33 24 45 -13 7 -91 36 -174 65 -82 29 -158 58 -168 65 -17
12 -17 13 0 20 10 5 24 7 32 6 7 -1 10 2 6 8 -3 6 -1 11 5 11 6 0 8 5 5 10 -3
6 1 10 9 10 9 0 16 8 17 18 0 11 2 12 6 4 4 -11 46 93 75 188 6 19 13 135 17
257 l6 223 52 -24 c145 -68 334 -233 405 -356 21 -36 50 -96 64 -134 l27 -69
25 49 c37 72 43 215 13 307 -29 85 -90 175 -165 244 -62 55 -269 193 -291 193
-17 0 -28 76 -15 100 13 23 78 76 150 120 115 71 118 58 -38 135 -75 37 -138
68 -140 70 -8 8 20 45 33 45 48 0 335 -141 511 -251 268 -167 477 -378 560
-564 129 -294 65 -565 -195 -825 -335 -334 -905 -590 -1557 -700 -303 -51
-402 -60 -690 -60 -289 0 -367 6 -684 56 -220 35 -427 88 -670 172 -344 120
-649 297 -861 499 -207 198 -298 394 -287 616 5 86 11 117 42 195 78 203 260
403 523 577 102 67 336 196 423 231 170 70 193 74 198 37z m2282 -533 c0 -5
-5 -10 -11 -10 -5 0 -7 5 -4 10 3 6 8 10 11 10 2 0 4 -4 4 -10z m10 -129 c0
-15 -4 -31 -9 -36 -5 -6 -11 -17 -14 -25 -2 -8 -3 -2 -1 14 2 16 4 42 4 58 0
17 4 27 10 23 6 -3 10 -19 10 -34z m-13 -406 c-6 -19 -12 -33 -14 -31 -8 7 9
76 17 71 5 -3 3 -21 -3 -40z m-40 -57 c-3 -8 -6 -5 -6 6 -1 11 2 17 5 13 3 -3
4 -12 1 -19z m-3153 -950 c8 -13 16 -59 19 -104 4 -82 10 -104 27 -104 5 0 40
-22 78 -50 38 -27 72 -50 76 -50 4 0 20 -8 34 -19 56 -39 303 -162 442 -219
134 -55 318 -118 415 -141 22 -5 76 -19 120 -30 133 -34 474 -90 652 -107 131
-13 229 -15 443 -10 151 3 309 10 350 15 241 30 424 62 595 104 66 16 138 33
160 38 22 4 74 20 115 34 41 14 107 36 145 49 174 59 463 193 590 274 39 26
51 29 57 18 4 -7 8 -476 8 -1042 0 -707 4 -1032 11 -1040 14 -17 -22 -65 -99
-132 -93 -81 -113 -96 -222 -169 -236 -157 -587 -303 -920 -382 -567 -135
-1154 -135 -1720 0 -278 66 -579 181 -819 312 -136 74 -121 73 -192 16 -34
-27 -65 -49 -70 -49 -19 0 -29 44 -29 132 l0 94 -66 64 c-118 116 -179 208
-220 330 -18 52 -19 114 -22 1106 -1 578 0 1059 4 1068 8 22 21 20 38 -6z"/>
<path fill="white"  d="M3861 6705 c-74 -21 -157 -70 -213 -126 -85 -85 -117 -174 -127 -351
-4 -70 -10 -130 -14 -134 -3 -4 -13 -2 -20 5 -11 9 -17 8 -27 -4 -12 -14 -15
-14 -31 1 -18 17 -19 14 -19 -64 l0 -82 58 -1 c189 -5 913 -5 995 -1 l99 5 -7
56 c-4 33 -13 61 -23 69 -20 15 -64 16 -80 0 -9 -9 -12 16 -12 113 0 189 -35
286 -141 391 -85 86 -182 129 -297 134 -58 3 -105 -1 -141 -11z m225 -204 c57
-26 109 -75 133 -125 40 -81 54 -76 -239 -76 -287 0 -274 -3 -246 64 21 51 76
107 131 132 64 30 161 32 221 5z"/>
<path fill="white"  d="M4856 5877 c3 -10 9 -15 12 -12 3 3 0 11 -7 18 -10 9 -11 8 -5 -6z"/>
<path fill="white"  d="M4830 5870 c0 -5 5 -10 11 -10 5 0 7 5 4 10 -3 6 -8 10 -11 10 -2 0
-4 -4 -4 -10z"/>
<path fill="white"  d="M4830 5839 c0 -5 -5 -7 -12 -3 -7 4 -8 3 -4 -5 6 -9 11 -9 22 0 12
10 18 8 29 -7 9 -12 14 -14 15 -6 0 7 6 10 13 7 6 -4 3 1 -7 9 -22 18 -56 21
-56 5z"/>
<path fill="white"  d="M6065 4968 c-54 -47 -21 -138 49 -138 36 0 46 6 69 40 24 34 21 63
-8 94 -30 33 -74 34 -110 4z"/>
<path fill="white"  d="M6170 4663 c-101 -37 -60 -194 44 -167 50 12 80 76 60 129 -12 30
-68 51 -104 38z"/>
<path fill="white"  d="M3498 2157 c-130 -37 -208 -140 -208 -274 1 -100 22 -138 155 -273
l115 -116 -111 -109 c-61 -61 -120 -128 -131 -150 -29 -56 -35 -157 -13 -215
10 -25 20 -76 24 -115 4 -38 13 -81 21 -95 52 -100 149 -163 253 -164 93 -1
152 31 262 143 50 51 98 97 108 102 16 9 36 -6 127 -96 128 -124 166 -145 265
-145 90 0 157 30 207 91 51 63 58 81 64 157 3 37 13 89 21 116 19 61 13 177
-11 226 -10 19 -68 83 -129 142 l-111 106 110 114 c133 138 159 183 158 283
-1 166 -114 278 -279 278 -106 0 -145 -22 -288 -162 l-122 -119 -120 114 c-66
63 -141 126 -167 139 -58 31 -138 39 -200 22z m921 -197 c16 0 51 -42 51 -62
0 -14 -60 -82 -181 -204 -163 -165 -180 -184 -169 -203 6 -12 85 -94 176 -183
90 -89 167 -172 170 -185 12 -45 -53 -107 -91 -86 -9 5 -98 88 -197 184 -99
96 -186 175 -193 177 -6 1 -88 -72 -181 -164 -93 -91 -180 -175 -193 -185 -51
-41 -111 -9 -111 59 0 35 9 46 182 213 l183 177 -25 34 c-14 19 -96 101 -182
183 -142 133 -158 152 -158 181 0 39 29 64 74 64 23 0 47 -18 120 -89 50 -49
134 -130 186 -179 l95 -91 45 42 c25 24 107 103 183 176 136 130 169 154 195
145 8 -2 17 -4 21 -4z"/>
<path fill="white"  d="M2537 6662 c-10 -11 -17 -40 -19 -77 l-3 -60 -50 -3 c-92 -4 -125
-22 -125 -66 0 -45 22 -59 101 -65 l74 -6 3 -66 c3 -76 22 -102 72 -102 45 0
54 16 58 98 l4 75 58 0 c89 0 110 11 110 58 0 57 -22 72 -103 72 l-67 0 0 64
c0 45 -5 69 -16 80 -21 21 -77 20 -97 -2z"/>
<path fill="white"  d="M15340 5834 c-543 -318 -648 -363 -960 -414 -100 -16 -171 -20 -356
-20 -207 0 -232 -2 -246 -17 -8 -10 -189 -308 -401 -663 -382 -639 -429 -710
-570 -865 -88 -96 -103 -118 -66 -93 15 9 181 136 370 282 189 146 373 288
409 316 36 27 128 98 205 158 77 59 181 139 230 177 50 38 167 128 260 200
303 234 914 704 1160 893 255 196 275 212 259 212 -5 0 -138 -75 -294 -166z"/>
<path fill="white"  d="M22943 5818 c-39 -29 -98 -73 -132 -98 -64 -47 -109 -80 -301 -222
-251 -185 -398 -294 -470 -347 -41 -30 -112 -82 -157 -115 -212 -157 -296
-219 -403 -296 -63 -46 -185 -136 -270 -199 -85 -63 -186 -138 -225 -166 -38
-28 -149 -110 -245 -181 -221 -164 -383 -283 -419 -309 -16 -11 -82 -59 -147
-107 -225 -166 -728 -535 -829 -608 -27 -20 -102 -74 -165 -121 -63 -47 -176
-130 -250 -184 -74 -54 -166 -121 -205 -150 -38 -28 -93 -67 -120 -87 -97 -70
-113 -108 -28 -68 26 12 64 28 83 35 19 7 63 27 98 44 84 42 275 107 337 115
67 10 105 -5 105 -40 0 -14 -52 -235 -115 -491 -63 -256 -115 -478 -115 -494
l0 -29 599 0 c532 0 601 -2 615 -16 19 -19 19 -17 2 -57 -15 -36 -56 -89 -124
-161 -26 -27 -60 -66 -75 -85 -16 -20 -42 -44 -60 -54 -30 -16 -151 -17 -2138
-17 -1158 0 -2109 3 -2112 7 -16 15 264 174 426 243 138 58 320 125 397 146
73 19 100 38 100 67 0 11 16 85 36 164 27 109 33 147 24 158 -9 11 -50 -15
-213 -136 -111 -82 -276 -205 -367 -271 -91 -67 -225 -167 -298 -223 -73 -55
-156 -112 -184 -127 l-52 -28 -1103 0 c-691 0 -1103 4 -1103 10 0 14 69 58
241 154 200 112 397 197 542 236 l115 30 426 0 c233 0 427 4 430 8 3 5 -1 53
-9 108 -81 573 -77 619 75 847 38 56 67 103 65 105 -1 2 -56 -38 -121 -88
-360 -274 -1210 -928 -1474 -1134 -168 -130 -322 -246 -342 -257 -36 -19 -83
-19 -2431 -19 -1953 0 -2396 -2 -2411 -13 -28 -20 -17 -59 19 -69 50 -13
13369 -10 13399 3 32 15 41 38 21 58 -14 14 -103 16 -810 19 -437 1 -795 6
-795 11 0 34 465 291 645 357 44 17 89 19 372 22 292 3 324 5 332 20 5 9 32
109 60 222 29 113 61 234 73 270 23 71 100 231 148 306 16 26 30 54 30 61 0
34 -23 19 -480 -318 -662 -489 -1242 -910 -1276 -928 -35 -18 -55 -21 -125
-19 -70 3 -84 6 -87 20 -2 10 1 18 8 18 10 0 97 61 340 239 69 50 161 118 205
150 122 88 624 455 768 561 74 55 127 101 127 111 0 10 -11 19 -31 23 -17 3
-310 6 -650 6 -489 0 -619 3 -619 13 0 6 36 156 81 332 44 176 84 342 90 369
5 28 16 60 24 73 l15 23 703 0 c386 0 707 4 714 8 7 4 21 46 32 92 35 152 111
454 122 492 6 20 12 53 13 75 l1 38 -609 3 c-424 1 -613 5 -622 13 -27 23 -8
40 331 302 383 297 444 341 505 370 43 21 62 22 442 27 218 3 399 8 403 12 4
3 17 48 31 98 81 313 236 584 562 985 100 125 97 136 -15 53z"/>
<path fill="white"  d="M10210 5824 c-346 -44 -663 -145 -904 -289 -61 -36 -115 -65 -121
-65 -14 0 -64 53 -95 100 -33 50 -81 100 -112 116 -22 12 -131 14 -643 14
-406 0 -623 -4 -636 -10 -10 -6 -19 -19 -19 -30 0 -19 71 -133 91 -145 6 -4
26 -32 46 -62 19 -30 56 -78 81 -107 43 -47 73 -86 139 -180 13 -17 39 -51 58
-76 72 -92 105 -136 146 -195 23 -33 63 -83 88 -111 44 -49 63 -75 138 -181
17 -25 42 -57 55 -72 52 -56 109 -156 133 -234 74 -234 168 -350 460 -570 62
-47 178 -190 375 -463 36 -50 103 -138 150 -196 47 -58 101 -126 120 -153 19
-26 53 -72 75 -101 100 -134 143 -199 138 -207 -24 -39 -227 -64 -380 -47
-195 21 -290 56 -357 130 -68 75 -79 115 -78 278 1 78 -2 142 -7 142 -4 0 -41
-24 -81 -52 -40 -29 -82 -60 -94 -68 -11 -8 -61 -45 -111 -82 -49 -37 -117
-87 -150 -111 -78 -57 -326 -240 -390 -287 -27 -20 -144 -106 -260 -190 -115
-84 -259 -189 -320 -234 -341 -248 -415 -307 -415 -327 0 -28 21 -21 160 59
381 216 688 342 837 342 63 0 70 -3 159 -71 222 -168 645 -289 1014 -289 305
0 654 54 883 136 38 13 76 24 86 24 17 0 62 -51 131 -147 52 -74 16 -70 705
-74 341 -2 764 -2 941 -1 l320 2 82 153 c45 83 126 233 180 332 l98 180 577 3
c317 1 577 1 577 0 0 -2 -9 -28 -21 -58 -35 -93 -118 -250 -181 -344 -33 -48
-54 -85 -46 -80 20 12 151 111 321 242 351 270 563 433 679 521 331 254 492
381 485 381 -4 0 -41 -14 -84 -31 -44 -18 -105 -34 -140 -36 -55 -5 -67 -3
-98 18 -70 48 -67 31 -160 754 -19 149 -39 304 -45 345 -6 41 -20 147 -31 235
-11 88 -33 257 -49 375 -16 118 -32 239 -35 268 -4 28 -11 52 -16 52 -8 0
-213 -155 -674 -510 -33 -25 -258 -199 -500 -385 -242 -187 -534 -412 -650
-500 -253 -195 -1087 -840 -1203 -932 -46 -36 -82 -67 -79 -69 2 -2 102 46
223 106 120 60 246 119 278 130 71 24 129 26 146 5 20 -24 6 -96 -34 -181 -39
-83 -380 -659 -395 -669 -10 -5 -81 61 -81 76 0 5 -19 32 -43 61 -24 29 -57
73 -75 98 -18 25 -55 74 -82 110 -27 36 -67 90 -89 120 -21 31 -46 62 -55 69
-21 18 -76 114 -76 134 0 8 13 55 29 104 46 135 61 228 61 365 0 160 -17 234
-84 373 -47 97 -68 126 -143 205 -48 50 -128 120 -177 155 -99 68 -353 201
-401 210 -26 5 -44 -5 -130 -70 -55 -41 -107 -75 -116 -75 -17 0 -69 77 -69
102 0 7 28 33 61 57 33 24 58 48 56 54 -1 5 -28 19 -58 30 -239 86 -235 84
-295 158 -30 38 -59 69 -63 69 -4 0 -25 24 -45 53 -54 77 -107 148 -143 192
-56 67 -43 116 55 206 112 105 263 158 469 166 161 7 249 -12 336 -71 46 -31
70 -56 92 -97 27 -49 30 -62 30 -149 -1 -111 -27 -210 -75 -281 -16 -24 -30
-52 -30 -61 0 -31 -14 -41 424 281 56 41 135 99 176 130 41 30 120 88 175 128
55 41 129 96 165 123 36 27 84 63 108 80 32 23 42 37 42 59 0 33 -46 123 -100
196 -76 103 -247 241 -355 287 -181 77 -297 109 -480 133 -144 18 -427 18
-575 -1z m-1349 -615 c16 -17 49 -58 74 -92 61 -82 106 -142 149 -197 20 -25
48 -63 62 -85 15 -22 38 -52 51 -66 14 -15 39 -47 56 -73 69 -99 133 -183 171
-226 23 -25 57 -67 76 -94 44 -60 107 -145 141 -188 14 -18 54 -71 88 -118 34
-47 74 -101 89 -120 15 -19 39 -51 52 -70 13 -19 44 -58 69 -87 45 -50 71 -84
202 -263 34 -47 74 -100 88 -118 32 -41 94 -124 141 -188 19 -26 55 -71 80
-99 25 -29 77 -96 115 -150 39 -54 86 -117 105 -141 19 -23 47 -60 62 -81 16
-21 50 -67 78 -103 27 -36 64 -85 82 -110 17 -25 52 -68 77 -96 25 -27 63 -78
84 -112 31 -51 36 -65 27 -82 -10 -18 -20 -20 -140 -20 -78 0 -139 5 -155 12
-14 6 -46 41 -70 77 -24 36 -55 77 -70 91 -15 14 -41 45 -58 70 -17 25 -44 61
-61 82 -17 20 -43 53 -58 75 -16 21 -50 67 -78 103 -28 36 -67 90 -87 120 -20
30 -55 75 -78 100 -23 25 -52 61 -65 80 -13 19 -37 51 -52 70 -42 52 -109 139
-146 190 -18 25 -59 81 -92 125 -33 44 -77 105 -99 135 -21 30 -51 66 -66 80
-15 14 -45 50 -66 80 -22 30 -62 84 -89 120 -27 36 -68 92 -91 125 -23 33 -55
76 -71 95 -42 51 -94 119 -125 165 -15 22 -44 58 -64 80 -21 22 -55 64 -76 92
-43 60 -138 188 -198 267 -22 30 -56 75 -75 102 -19 26 -55 71 -80 99 -45 52
-79 97 -158 208 -23 34 -53 73 -67 87 -14 14 -25 33 -25 41 0 34 22 39 168 39
l144 0 29 -31z m5089 -1002 c0 -24 9 -156 20 -293 22 -282 50 -698 50 -749 l0
-35 -345 0 c-212 0 -345 4 -345 10 0 5 50 100 111 212 61 112 174 320 251 463
78 143 158 291 179 328 22 38 39 72 39 76 0 10 22 31 32 31 4 0 8 -20 8 -43z"/>
<path fill="white"  d="M19510 5729 c0 -5 5 -7 10 -4 6 3 10 8 10 11 0 2 -4 4 -10 4 -5 0
-10 -5 -10 -11z"/>
<path fill="white"  d="M19390 5652 c-47 -31 -108 -74 -135 -95 -66 -51 -300 -224 -399 -295
-43 -31 -122 -89 -175 -128 -53 -38 -166 -121 -251 -184 -243 -178 -249 -183
-255 -198 -3 -7 -3 -18 1 -23 3 -5 167 -9 383 -9 348 0 379 1 393 18 8 9 32
87 52 172 32 130 47 173 98 270 61 118 163 263 252 360 75 81 134 149 141 160
15 24 -26 6 -105 -48z"/>
<path fill="white"  d="M16537 5458 c-20 -15 -16 3 -206 -768 -82 -333 -189 -763 -237 -957
-47 -193 -84 -359 -80 -368 5 -15 8 -15 33 0 16 9 96 67 179 128 83 62 191
141 240 176 49 36 139 101 199 146 61 44 202 148 313 230 112 83 209 159 214
169 6 11 19 56 30 100 53 224 91 373 100 389 8 15 25 17 138 17 71 0 140 -4
155 -10 53 -20 43 -63 -36 -156 -76 -89 -63 -112 25 -46 116 86 245 182 309
228 37 27 118 86 180 131 62 46 155 114 207 152 52 38 154 113 225 165 72 53
171 125 220 160 100 71 130 100 120 115 -10 17 -2306 15 -2328 -1z"/>
<path fill="white"  d="M19876 5388 c-7 -13 -41 -138 -75 -278 -34 -140 -77 -316 -96 -390
-170 -672 -324 -1311 -319 -1324 3 -9 10 -16 14 -16 5 0 46 28 92 62 46 33
115 85 153 113 39 29 115 85 170 125 55 40 141 103 190 140 50 36 185 135 300
220 116 84 220 163 232 174 16 16 34 72 72 225 28 112 56 210 62 217 9 11 60
14 249 14 l238 0 78 58 c44 32 106 78 140 103 164 120 205 150 299 219 130 96
177 130 293 212 124 88 155 117 141 135 -9 11 -209 13 -1115 13 l-1104 0 -14
-22z"/>
<path fill="white"  d="M12192 5349 c-66 -46 -174 -124 -347 -253 -68 -51 -177 -131 -280
-206 -358 -261 -395 -289 -395 -301 0 -5 114 -9 285 -9 l284 0 16 30 c8 16 15
35 15 43 0 23 109 238 148 292 38 53 62 83 212 259 184 215 193 235 62 145z"/>
<path fill="white"  d="M17051 3933 c-28 -21 -94 -69 -146 -108 -53 -38 -117 -86 -143 -105
-26 -19 -153 -112 -282 -207 -129 -95 -304 -223 -389 -285 -207 -152 -422
-310 -651 -477 -160 -116 -174 -150 -41 -96 94 38 239 75 298 75 41 0 58 -5
82 -26 27 -22 31 -33 31 -73 0 -44 -22 -159 -54 -281 -15 -58 -79 -313 -123
-487 -14 -56 -23 -109 -20 -118 5 -12 30 -15 150 -15 l144 0 84 62 c252 186
533 392 657 481 253 182 319 232 337 255 l18 25 -24 -7 c-13 -4 -52 -12 -86
-18 -57 -11 -64 -10 -83 7 -25 23 -27 10 29 235 23 91 53 216 69 279 15 63 33
121 40 128 11 10 151 13 742 13 684 0 730 1 739 18 5 9 20 64 34 122 15 58 49
197 78 310 29 113 54 224 56 247 l5 43 -724 2 c-675 3 -726 4 -742 21 -24 23
-27 22 -85 -20z"/>
<path fill="white"  d="M9104 3316 c-60 -26 -249 -86 -319 -101 -166 -36 -245 -45 -422 -45
-195 0 -207 -3 -217 -53 -3 -12 -10 -51 -17 -87 -25 -127 -10 -436 22 -456 11
-6 41 13 154 97 207 153 445 328 515 379 41 30 126 93 189 140 63 47 122 91
132 99 21 15 25 41 7 41 -7 -1 -27 -7 -44 -14z"/>
</g>
</svg>
